<mxfile host="65bd71144e">
    <diagram id="KzBFJ-MsNFSQfIucaHH6" name="Page-1">
        <mxGraphModel dx="2216" dy="2016" grid="1" gridSize="10" guides="1" tooltips="1" connect="1" arrows="1" fold="1" page="1" pageScale="1" pageWidth="850" pageHeight="1100" math="0" shadow="0">
            <root>
                <mxCell id="0"/>
                <mxCell id="1" parent="0"/>
                <mxCell id="2" value="회원" style="whiteSpace=wrap;html=1;align=center;" vertex="1" parent="1">
                    <mxGeometry x="380" y="-520" width="100" height="40" as="geometry"/>
                </mxCell>
                <mxCell id="4" value="직업" style="ellipse;whiteSpace=wrap;html=1;align=center;" vertex="1" parent="1">
                    <mxGeometry x="190" y="-450" width="100" height="40" as="geometry"/>
                </mxCell>
                <mxCell id="7" value="나이" style="ellipse;whiteSpace=wrap;html=1;align=center;" vertex="1" parent="1">
                    <mxGeometry x="260" y="-390" width="100" height="40" as="geometry"/>
                </mxCell>
                <mxCell id="8" value="비밀번호" style="ellipse;whiteSpace=wrap;html=1;align=center;" vertex="1" parent="1">
                    <mxGeometry x="495" y="-390" width="100" height="40" as="geometry"/>
                </mxCell>
                <mxCell id="9" value="아이디(pk)" style="ellipse;whiteSpace=wrap;html=1;align=center;fontStyle=4;" vertex="1" parent="1">
                    <mxGeometry x="550" y="-450" width="100" height="40" as="geometry"/>
                </mxCell>
                <mxCell id="10" value="이름" style="ellipse;whiteSpace=wrap;html=1;align=center;" vertex="1" parent="1">
                    <mxGeometry x="380" y="-360" width="100" height="40" as="geometry"/>
                </mxCell>
                <mxCell id="11" value="등급" style="ellipse;whiteSpace=wrap;html=1;align=center;" vertex="1" parent="1">
                    <mxGeometry x="180" y="-520" width="100" height="40" as="geometry"/>
                </mxCell>
                <mxCell id="12" value="적립금" style="ellipse;whiteSpace=wrap;html=1;align=center;" vertex="1" parent="1">
                    <mxGeometry x="580" y="-520" width="100" height="40" as="geometry"/>
                </mxCell>
                <mxCell id="14" value="" style="endArrow=none;html=1;rounded=0;" edge="1" parent="1">
                    <mxGeometry relative="1" as="geometry">
                        <mxPoint x="280" y="-500.34000000000003" as="sourcePoint"/>
                        <mxPoint x="380" y="-500" as="targetPoint"/>
                    </mxGeometry>
                </mxCell>
                <mxCell id="15" value="" style="resizable=0;html=1;whiteSpace=wrap;align=right;verticalAlign=bottom;" connectable="0" vertex="1" parent="14">
                    <mxGeometry x="1" relative="1" as="geometry"/>
                </mxCell>
                <mxCell id="16" value="" style="endArrow=none;html=1;rounded=0;" edge="1" parent="1" source="10" target="2">
                    <mxGeometry relative="1" as="geometry">
                        <mxPoint x="400" y="-310" as="sourcePoint"/>
                        <mxPoint x="560" y="-310" as="targetPoint"/>
                    </mxGeometry>
                </mxCell>
                <mxCell id="18" value="" style="endArrow=none;html=1;rounded=0;" edge="1" parent="1" source="7" target="2">
                    <mxGeometry relative="1" as="geometry">
                        <mxPoint x="350" y="-380" as="sourcePoint"/>
                        <mxPoint x="350" y="-500" as="targetPoint"/>
                    </mxGeometry>
                </mxCell>
                <mxCell id="20" value="" style="endArrow=none;html=1;rounded=0;" edge="1" parent="1" source="4" target="2">
                    <mxGeometry relative="1" as="geometry">
                        <mxPoint x="290" y="-439" as="sourcePoint"/>
                        <mxPoint x="380" y="-484" as="targetPoint"/>
                    </mxGeometry>
                </mxCell>
                <mxCell id="22" value="" style="endArrow=none;html=1;rounded=0;" edge="1" parent="1" target="2">
                    <mxGeometry relative="1" as="geometry">
                        <mxPoint x="530" y="-390" as="sourcePoint"/>
                        <mxPoint x="530" y="-510" as="targetPoint"/>
                    </mxGeometry>
                </mxCell>
                <mxCell id="24" value="" style="endArrow=none;html=1;rounded=0;" edge="1" parent="1" source="9" target="2">
                    <mxGeometry relative="1" as="geometry">
                        <mxPoint x="540" y="-410" as="sourcePoint"/>
                        <mxPoint x="480" y="-498" as="targetPoint"/>
                    </mxGeometry>
                </mxCell>
                <mxCell id="26" value="" style="endArrow=none;html=1;rounded=0;" edge="1" parent="1" source="12" target="2">
                    <mxGeometry relative="1" as="geometry">
                        <mxPoint x="580" y="-450" as="sourcePoint"/>
                        <mxPoint x="489" y="-502" as="targetPoint"/>
                    </mxGeometry>
                </mxCell>
                <mxCell id="28" value="상품" style="whiteSpace=wrap;html=1;align=center;" vertex="1" parent="1">
                    <mxGeometry x="80" y="-770" width="100" height="40" as="geometry"/>
                </mxCell>
                <mxCell id="29" value="상품명" style="ellipse;whiteSpace=wrap;html=1;align=center;" vertex="1" parent="1">
                    <mxGeometry x="-150" y="-720" width="100" height="40" as="geometry"/>
                </mxCell>
                <mxCell id="30" value="재고량" style="ellipse;whiteSpace=wrap;html=1;align=center;" vertex="1" parent="1">
                    <mxGeometry x="-150" y="-890" width="100" height="40" as="geometry"/>
                </mxCell>
                <mxCell id="31" value="단가" style="ellipse;whiteSpace=wrap;html=1;align=center;" vertex="1" parent="1">
                    <mxGeometry x="-150" y="-800" width="100" height="40" as="geometry"/>
                </mxCell>
                <mxCell id="32" value="상품번호" style="ellipse;whiteSpace=wrap;html=1;align=center;fontStyle=4;" vertex="1" parent="1">
                    <mxGeometry x="260" y="-770" width="100" height="40" as="geometry"/>
                </mxCell>
                <mxCell id="34" value="" style="endArrow=none;html=1;rounded=0;entryX=0;entryY=0.5;entryDx=0;entryDy=0;exitX=0.93;exitY=0.675;exitDx=0;exitDy=0;exitPerimeter=0;" edge="1" parent="1" source="30" target="28">
                    <mxGeometry relative="1" as="geometry">
                        <mxPoint x="-10" y="-830.34" as="sourcePoint"/>
                        <mxPoint x="150" y="-830.34" as="targetPoint"/>
                    </mxGeometry>
                </mxCell>
                <mxCell id="35" value="" style="endArrow=none;html=1;rounded=0;exitX=1;exitY=0.5;exitDx=0;exitDy=0;" edge="1" parent="1" source="31">
                    <mxGeometry relative="1" as="geometry">
                        <mxPoint x="-10" y="-750.34" as="sourcePoint"/>
                        <mxPoint x="80" y="-750" as="targetPoint"/>
                    </mxGeometry>
                </mxCell>
                <mxCell id="36" value="" style="endArrow=none;html=1;rounded=0;entryX=0;entryY=0.5;entryDx=0;entryDy=0;" edge="1" parent="1" source="29" target="28">
                    <mxGeometry relative="1" as="geometry">
                        <mxPoint x="-10" y="-670.34" as="sourcePoint"/>
                        <mxPoint x="80" y="-670" as="targetPoint"/>
                    </mxGeometry>
                </mxCell>
                <mxCell id="37" value="" style="endArrow=none;html=1;rounded=0;" edge="1" parent="1" source="28">
                    <mxGeometry relative="1" as="geometry">
                        <mxPoint x="155" y="-690" as="sourcePoint"/>
                        <mxPoint x="260" y="-749.66" as="targetPoint"/>
                    </mxGeometry>
                </mxCell>
                <mxCell id="43" value="위치" style="ellipse;whiteSpace=wrap;html=1;align=center;" vertex="1" parent="1">
                    <mxGeometry x="-400" y="-400" width="100" height="40" as="geometry"/>
                </mxCell>
                <mxCell id="50" value="게시글" style="whiteSpace=wrap;html=1;align=center;" vertex="1" parent="1">
                    <mxGeometry x="-140" y="-180" width="100" height="40" as="geometry"/>
                </mxCell>
                <mxCell id="51" value="글번호" style="ellipse;whiteSpace=wrap;html=1;align=center;fontStyle=4;" vertex="1" parent="1">
                    <mxGeometry x="30" y="-180" width="100" height="40" as="geometry"/>
                </mxCell>
                <mxCell id="52" value="제목" style="ellipse;whiteSpace=wrap;html=1;align=center;" vertex="1" parent="1">
                    <mxGeometry x="-310" y="-250" width="100" height="40" as="geometry"/>
                </mxCell>
                <mxCell id="53" value="내용" style="ellipse;whiteSpace=wrap;html=1;align=center;" vertex="1" parent="1">
                    <mxGeometry x="-310" y="-180" width="100" height="40" as="geometry"/>
                </mxCell>
                <mxCell id="54" value="작성일" style="ellipse;whiteSpace=wrap;html=1;align=center;" vertex="1" parent="1">
                    <mxGeometry x="-310" y="-110" width="100" height="40" as="geometry"/>
                </mxCell>
                <mxCell id="55" value="" style="endArrow=none;html=1;rounded=0;entryX=0;entryY=0.5;entryDx=0;entryDy=0;" edge="1" parent="1" target="50">
                    <mxGeometry relative="1" as="geometry">
                        <mxPoint x="-210" y="-230" as="sourcePoint"/>
                        <mxPoint x="-130" y="-270" as="targetPoint"/>
                        <Array as="points"/>
                    </mxGeometry>
                </mxCell>
                <mxCell id="56" value="" style="endArrow=none;html=1;rounded=0;" edge="1" parent="1" target="50">
                    <mxGeometry relative="1" as="geometry">
                        <mxPoint x="-210" y="-160" as="sourcePoint"/>
                        <mxPoint x="-140" y="-90" as="targetPoint"/>
                        <Array as="points"/>
                    </mxGeometry>
                </mxCell>
                <mxCell id="57" value="" style="endArrow=none;html=1;rounded=0;" edge="1" parent="1">
                    <mxGeometry relative="1" as="geometry">
                        <mxPoint x="-210" y="-90.34000000000003" as="sourcePoint"/>
                        <mxPoint x="-140" y="-160" as="targetPoint"/>
                        <Array as="points"/>
                    </mxGeometry>
                </mxCell>
                <mxCell id="58" value="" style="endArrow=none;html=1;rounded=0;" edge="1" parent="1" source="50">
                    <mxGeometry relative="1" as="geometry">
                        <mxPoint x="-40" y="-90" as="sourcePoint"/>
                        <mxPoint x="30" y="-159.65999999999997" as="targetPoint"/>
                        <Array as="points"/>
                    </mxGeometry>
                </mxCell>
                <mxCell id="69" value="" style="endArrow=none;html=1;rounded=0;entryX=0;entryY=0;entryDx=0;entryDy=0;" edge="1" parent="1" target="2">
                    <mxGeometry relative="1" as="geometry">
                        <mxPoint x="180" y="-730" as="sourcePoint"/>
                        <mxPoint x="340" y="-730" as="targetPoint"/>
                    </mxGeometry>
                </mxCell>
                <mxCell id="70" value="M" style="resizable=0;html=1;whiteSpace=wrap;align=left;verticalAlign=bottom;" connectable="0" vertex="1" parent="69">
                    <mxGeometry x="-1" relative="1" as="geometry">
                        <mxPoint x="200" y="210" as="offset"/>
                    </mxGeometry>
                </mxCell>
                <mxCell id="71" value="N" style="resizable=0;html=1;whiteSpace=wrap;align=right;verticalAlign=bottom;" connectable="0" vertex="1" parent="69">
                    <mxGeometry x="1" relative="1" as="geometry">
                        <mxPoint x="-200" y="-190" as="offset"/>
                    </mxGeometry>
                </mxCell>
                <mxCell id="68" value="주문" style="shape=rhombus;perimeter=rhombusPerimeter;whiteSpace=wrap;html=1;align=center;" vertex="1" parent="1">
                    <mxGeometry x="210" y="-660" width="120" height="60" as="geometry"/>
                </mxCell>
                <mxCell id="72" value="주문번호" style="ellipse;whiteSpace=wrap;html=1;align=center;fontStyle=4;" vertex="1" parent="1">
                    <mxGeometry x="330" y="-630" width="100" height="40" as="geometry"/>
                </mxCell>
                <mxCell id="73" value="주문수량" style="ellipse;whiteSpace=wrap;html=1;align=center;" vertex="1" parent="1">
                    <mxGeometry x="325" y="-680" width="100" height="40" as="geometry"/>
                </mxCell>
                <mxCell id="74" value="주문일자" style="ellipse;whiteSpace=wrap;html=1;align=center;" vertex="1" parent="1">
                    <mxGeometry x="110" y="-630" width="100" height="40" as="geometry"/>
                </mxCell>
                <mxCell id="75" value="배송지" style="ellipse;whiteSpace=wrap;html=1;align=center;" vertex="1" parent="1">
                    <mxGeometry x="110" y="-680" width="100" height="40" as="geometry"/>
                </mxCell>
                <mxCell id="76" value="" style="endArrow=none;html=1;rounded=0;" edge="1" parent="1" source="74" target="68">
                    <mxGeometry relative="1" as="geometry">
                        <mxPoint x="170" y="-600" as="sourcePoint"/>
                        <mxPoint x="330" y="-600" as="targetPoint"/>
                    </mxGeometry>
                </mxCell>
                <mxCell id="77" value="" style="endArrow=none;html=1;rounded=0;" edge="1" parent="1" source="75" target="68">
                    <mxGeometry relative="1" as="geometry">
                        <mxPoint x="210" y="-646" as="sourcePoint"/>
                        <mxPoint x="230" y="-650" as="targetPoint"/>
                    </mxGeometry>
                </mxCell>
                <mxCell id="78" value="" style="endArrow=none;html=1;rounded=0;" edge="1" parent="1" source="68" target="73">
                    <mxGeometry relative="1" as="geometry">
                        <mxPoint x="295" y="-668" as="sourcePoint"/>
                        <mxPoint x="325" y="-660" as="targetPoint"/>
                    </mxGeometry>
                </mxCell>
                <mxCell id="79" value="" style="endArrow=none;html=1;rounded=0;" edge="1" parent="1" source="68" target="72">
                    <mxGeometry relative="1" as="geometry">
                        <mxPoint x="318" y="-623" as="sourcePoint"/>
                        <mxPoint x="344" y="-630" as="targetPoint"/>
                    </mxGeometry>
                </mxCell>
                <mxCell id="85" value="" style="endArrow=none;html=1;rounded=0;entryX=0;entryY=0;entryDx=0;entryDy=0;" edge="1" parent="1" source="2">
                    <mxGeometry relative="1" as="geometry">
                        <mxPoint x="200" y="-420" as="sourcePoint"/>
                        <mxPoint x="-90" y="-180" as="targetPoint"/>
                    </mxGeometry>
                </mxCell>
                <mxCell id="86" value="1" style="resizable=0;html=1;whiteSpace=wrap;align=left;verticalAlign=bottom;" connectable="0" vertex="1" parent="85">
                    <mxGeometry x="-1" relative="1" as="geometry">
                        <mxPoint x="-17" y="20" as="offset"/>
                    </mxGeometry>
                </mxCell>
                <mxCell id="87" value="N" style="resizable=0;html=1;whiteSpace=wrap;align=right;verticalAlign=bottom;" connectable="0" vertex="1" parent="85">
                    <mxGeometry x="1" relative="1" as="geometry">
                        <mxPoint as="offset"/>
                    </mxGeometry>
                </mxCell>
                <mxCell id="88" value="작성" style="shape=rhombus;perimeter=rhombusPerimeter;whiteSpace=wrap;html=1;align=center;" vertex="1" parent="1">
                    <mxGeometry x="80" y="-350" width="120" height="60" as="geometry"/>
                </mxCell>
                <mxCell id="39" value="제조업체" style="whiteSpace=wrap;html=1;align=center;" vertex="1" parent="1">
                    <mxGeometry x="-210" y="-490" width="100" height="40" as="geometry"/>
                </mxCell>
                <mxCell id="40" value="업체코드" style="ellipse;whiteSpace=wrap;html=1;align=center;fontStyle=4;" vertex="1" parent="1">
                    <mxGeometry x="-30" y="-450" width="100" height="40" as="geometry"/>
                </mxCell>
                <mxCell id="41" value="업체명" style="ellipse;whiteSpace=wrap;html=1;align=center;" vertex="1" parent="1">
                    <mxGeometry x="-400" y="-550" width="100" height="40" as="geometry"/>
                </mxCell>
                <mxCell id="42" value="전화번호" style="ellipse;whiteSpace=wrap;html=1;align=center;" vertex="1" parent="1">
                    <mxGeometry x="-400" y="-470" width="100" height="40" as="geometry"/>
                </mxCell>
                <mxCell id="44" value="담당자" style="ellipse;whiteSpace=wrap;html=1;align=center;" vertex="1" parent="1">
                    <mxGeometry x="-30" y="-530" width="100" height="40" as="geometry"/>
                </mxCell>
                <mxCell id="45" value="" style="endArrow=none;html=1;rounded=0;entryX=0;entryY=0.5;entryDx=0;entryDy=0;" edge="1" parent="1" target="39">
                    <mxGeometry relative="1" as="geometry">
                        <mxPoint x="-300" y="-530.69" as="sourcePoint"/>
                        <mxPoint x="-140" y="-530.69" as="targetPoint"/>
                    </mxGeometry>
                </mxCell>
                <mxCell id="46" value="" style="endArrow=none;html=1;rounded=0;entryX=0;entryY=0.5;entryDx=0;entryDy=0;" edge="1" parent="1" target="39">
                    <mxGeometry relative="1" as="geometry">
                        <mxPoint x="-300" y="-450" as="sourcePoint"/>
                        <mxPoint x="-210" y="-389.30999999999995" as="targetPoint"/>
                        <Array as="points"/>
                    </mxGeometry>
                </mxCell>
                <mxCell id="47" value="" style="endArrow=none;html=1;rounded=0;entryX=0;entryY=0.5;entryDx=0;entryDy=0;" edge="1" parent="1" target="39">
                    <mxGeometry relative="1" as="geometry">
                        <mxPoint x="-300" y="-380" as="sourcePoint"/>
                        <mxPoint x="-210" y="-400" as="targetPoint"/>
                        <Array as="points"/>
                    </mxGeometry>
                </mxCell>
                <mxCell id="48" value="" style="endArrow=none;html=1;rounded=0;entryX=0;entryY=0.5;entryDx=0;entryDy=0;exitX=1;exitY=0.5;exitDx=0;exitDy=0;" edge="1" parent="1" source="39">
                    <mxGeometry relative="1" as="geometry">
                        <mxPoint x="-120" y="-340" as="sourcePoint"/>
                        <mxPoint x="-30" y="-430" as="targetPoint"/>
                        <Array as="points"/>
                    </mxGeometry>
                </mxCell>
                <mxCell id="49" value="" style="endArrow=none;html=1;rounded=0;entryX=0;entryY=0.5;entryDx=0;entryDy=0;" edge="1" parent="1" target="44">
                    <mxGeometry relative="1" as="geometry">
                        <mxPoint x="-110" y="-470" as="sourcePoint"/>
                        <mxPoint x="-20" y="-420" as="targetPoint"/>
                        <Array as="points"/>
                    </mxGeometry>
                </mxCell>
                <mxCell id="82" value="" style="endArrow=none;html=1;rounded=0;entryX=0;entryY=0;entryDx=0;entryDy=0;exitX=0.5;exitY=1;exitDx=0;exitDy=0;" edge="1" parent="1" source="28">
                    <mxGeometry relative="1" as="geometry">
                        <mxPoint x="-360" y="-700" as="sourcePoint"/>
                        <mxPoint x="-160" y="-490" as="targetPoint"/>
                    </mxGeometry>
                </mxCell>
                <mxCell id="83" value="1" style="resizable=0;html=1;whiteSpace=wrap;align=left;verticalAlign=bottom;" connectable="0" vertex="1" parent="82">
                    <mxGeometry x="-1" relative="1" as="geometry">
                        <mxPoint x="-300" y="240" as="offset"/>
                    </mxGeometry>
                </mxCell>
                <mxCell id="84" value="N" style="resizable=0;html=1;whiteSpace=wrap;align=right;verticalAlign=bottom;" connectable="0" vertex="1" parent="82">
                    <mxGeometry x="1" relative="1" as="geometry">
                        <mxPoint x="270" y="-220" as="offset"/>
                    </mxGeometry>
                </mxCell>
                <mxCell id="80" value="공급" style="shape=rhombus;perimeter=rhombusPerimeter;whiteSpace=wrap;html=1;align=center;" vertex="1" parent="1">
                    <mxGeometry x="-90" y="-630" width="120" height="60" as="geometry"/>
                </mxCell>
            </root>
        </mxGraphModel>
    </diagram>
    <diagram id="csRfuwV52vs4UkWu3xwg" name="Page-2">
        <mxGraphModel dx="801" dy="537" grid="1" gridSize="10" guides="1" tooltips="1" connect="1" arrows="1" fold="1" page="1" pageScale="1" pageWidth="850" pageHeight="1100" math="0" shadow="0">
            <root>
                <mxCell id="0"/>
                <mxCell id="1" parent="0"/>
                <mxCell id="T8S2J-beWVn7dF4hVDKO-1" value="회원" style="shape=table;startSize=30;container=1;collapsible=1;childLayout=tableLayout;fixedRows=1;rowLines=0;fontStyle=1;align=center;resizeLast=1;html=1;" vertex="1" parent="1">
                    <mxGeometry x="20" y="330" width="140" height="240" as="geometry"/>
                </mxCell>
                <mxCell id="T8S2J-beWVn7dF4hVDKO-2" value="" style="shape=tableRow;horizontal=0;startSize=0;swimlaneHead=0;swimlaneBody=0;fillColor=none;collapsible=0;dropTarget=0;points=[[0,0.5],[1,0.5]];portConstraint=eastwest;top=0;left=0;right=0;bottom=1;" vertex="1" parent="T8S2J-beWVn7dF4hVDKO-1">
                    <mxGeometry y="30" width="140" height="30" as="geometry"/>
                </mxCell>
                <mxCell id="T8S2J-beWVn7dF4hVDKO-3" value="PK" style="shape=partialRectangle;connectable=0;fillColor=none;top=0;left=0;bottom=0;right=0;fontStyle=1;overflow=hidden;whiteSpace=wrap;html=1;" vertex="1" parent="T8S2J-beWVn7dF4hVDKO-2">
                    <mxGeometry width="30" height="30" as="geometry">
                        <mxRectangle width="30" height="30" as="alternateBounds"/>
                    </mxGeometry>
                </mxCell>
                <mxCell id="T8S2J-beWVn7dF4hVDKO-4" value="아이디" style="shape=partialRectangle;connectable=0;fillColor=none;top=0;left=0;bottom=0;right=0;align=left;spacingLeft=6;fontStyle=5;overflow=hidden;whiteSpace=wrap;html=1;" vertex="1" parent="T8S2J-beWVn7dF4hVDKO-2">
                    <mxGeometry x="30" width="110" height="30" as="geometry">
                        <mxRectangle width="110" height="30" as="alternateBounds"/>
                    </mxGeometry>
                </mxCell>
                <mxCell id="T8S2J-beWVn7dF4hVDKO-5" value="" style="shape=tableRow;horizontal=0;startSize=0;swimlaneHead=0;swimlaneBody=0;fillColor=none;collapsible=0;dropTarget=0;points=[[0,0.5],[1,0.5]];portConstraint=eastwest;top=0;left=0;right=0;bottom=0;" vertex="1" parent="T8S2J-beWVn7dF4hVDKO-1">
                    <mxGeometry y="60" width="140" height="30" as="geometry"/>
                </mxCell>
                <mxCell id="T8S2J-beWVn7dF4hVDKO-6" value="" style="shape=partialRectangle;connectable=0;fillColor=none;top=0;left=0;bottom=0;right=0;editable=1;overflow=hidden;whiteSpace=wrap;html=1;" vertex="1" parent="T8S2J-beWVn7dF4hVDKO-5">
                    <mxGeometry width="30" height="30" as="geometry">
                        <mxRectangle width="30" height="30" as="alternateBounds"/>
                    </mxGeometry>
                </mxCell>
                <mxCell id="T8S2J-beWVn7dF4hVDKO-7" value="비밀번호" style="shape=partialRectangle;connectable=0;fillColor=none;top=0;left=0;bottom=0;right=0;align=left;spacingLeft=6;overflow=hidden;whiteSpace=wrap;html=1;" vertex="1" parent="T8S2J-beWVn7dF4hVDKO-5">
                    <mxGeometry x="30" width="110" height="30" as="geometry">
                        <mxRectangle width="110" height="30" as="alternateBounds"/>
                    </mxGeometry>
                </mxCell>
                <mxCell id="T8S2J-beWVn7dF4hVDKO-8" value="" style="shape=tableRow;horizontal=0;startSize=0;swimlaneHead=0;swimlaneBody=0;fillColor=none;collapsible=0;dropTarget=0;points=[[0,0.5],[1,0.5]];portConstraint=eastwest;top=0;left=0;right=0;bottom=0;" vertex="1" parent="T8S2J-beWVn7dF4hVDKO-1">
                    <mxGeometry y="90" width="140" height="30" as="geometry"/>
                </mxCell>
                <mxCell id="T8S2J-beWVn7dF4hVDKO-9" value="" style="shape=partialRectangle;connectable=0;fillColor=none;top=0;left=0;bottom=0;right=0;editable=1;overflow=hidden;whiteSpace=wrap;html=1;" vertex="1" parent="T8S2J-beWVn7dF4hVDKO-8">
                    <mxGeometry width="30" height="30" as="geometry">
                        <mxRectangle width="30" height="30" as="alternateBounds"/>
                    </mxGeometry>
                </mxCell>
                <mxCell id="T8S2J-beWVn7dF4hVDKO-10" value="이름" style="shape=partialRectangle;connectable=0;fillColor=none;top=0;left=0;bottom=0;right=0;align=left;spacingLeft=6;overflow=hidden;whiteSpace=wrap;html=1;" vertex="1" parent="T8S2J-beWVn7dF4hVDKO-8">
                    <mxGeometry x="30" width="110" height="30" as="geometry">
                        <mxRectangle width="110" height="30" as="alternateBounds"/>
                    </mxGeometry>
                </mxCell>
                <mxCell id="T8S2J-beWVn7dF4hVDKO-11" value="" style="shape=tableRow;horizontal=0;startSize=0;swimlaneHead=0;swimlaneBody=0;fillColor=none;collapsible=0;dropTarget=0;points=[[0,0.5],[1,0.5]];portConstraint=eastwest;top=0;left=0;right=0;bottom=0;" vertex="1" parent="T8S2J-beWVn7dF4hVDKO-1">
                    <mxGeometry y="120" width="140" height="30" as="geometry"/>
                </mxCell>
                <mxCell id="T8S2J-beWVn7dF4hVDKO-12" value="" style="shape=partialRectangle;connectable=0;fillColor=none;top=0;left=0;bottom=0;right=0;editable=1;overflow=hidden;whiteSpace=wrap;html=1;" vertex="1" parent="T8S2J-beWVn7dF4hVDKO-11">
                    <mxGeometry width="30" height="30" as="geometry">
                        <mxRectangle width="30" height="30" as="alternateBounds"/>
                    </mxGeometry>
                </mxCell>
                <mxCell id="T8S2J-beWVn7dF4hVDKO-13" value="나이" style="shape=partialRectangle;connectable=0;fillColor=none;top=0;left=0;bottom=0;right=0;align=left;spacingLeft=6;overflow=hidden;whiteSpace=wrap;html=1;" vertex="1" parent="T8S2J-beWVn7dF4hVDKO-11">
                    <mxGeometry x="30" width="110" height="30" as="geometry">
                        <mxRectangle width="110" height="30" as="alternateBounds"/>
                    </mxGeometry>
                </mxCell>
                <mxCell id="0tAN6g0XV3w3GasFkMBS-1" value="" style="shape=tableRow;horizontal=0;startSize=0;swimlaneHead=0;swimlaneBody=0;fillColor=none;collapsible=0;dropTarget=0;points=[[0,0.5],[1,0.5]];portConstraint=eastwest;top=0;left=0;right=0;bottom=0;" vertex="1" parent="T8S2J-beWVn7dF4hVDKO-1">
                    <mxGeometry y="150" width="140" height="30" as="geometry"/>
                </mxCell>
                <mxCell id="0tAN6g0XV3w3GasFkMBS-2" value="" style="shape=partialRectangle;connectable=0;fillColor=none;top=0;left=0;bottom=0;right=0;editable=1;overflow=hidden;whiteSpace=wrap;html=1;" vertex="1" parent="0tAN6g0XV3w3GasFkMBS-1">
                    <mxGeometry width="30" height="30" as="geometry">
                        <mxRectangle width="30" height="30" as="alternateBounds"/>
                    </mxGeometry>
                </mxCell>
                <mxCell id="0tAN6g0XV3w3GasFkMBS-3" value="직업" style="shape=partialRectangle;connectable=0;fillColor=none;top=0;left=0;bottom=0;right=0;align=left;spacingLeft=6;overflow=hidden;whiteSpace=wrap;html=1;" vertex="1" parent="0tAN6g0XV3w3GasFkMBS-1">
                    <mxGeometry x="30" width="110" height="30" as="geometry">
                        <mxRectangle width="110" height="30" as="alternateBounds"/>
                    </mxGeometry>
                </mxCell>
                <mxCell id="0tAN6g0XV3w3GasFkMBS-4" value="" style="shape=tableRow;horizontal=0;startSize=0;swimlaneHead=0;swimlaneBody=0;fillColor=none;collapsible=0;dropTarget=0;points=[[0,0.5],[1,0.5]];portConstraint=eastwest;top=0;left=0;right=0;bottom=0;" vertex="1" parent="T8S2J-beWVn7dF4hVDKO-1">
                    <mxGeometry y="180" width="140" height="30" as="geometry"/>
                </mxCell>
                <mxCell id="0tAN6g0XV3w3GasFkMBS-5" value="" style="shape=partialRectangle;connectable=0;fillColor=none;top=0;left=0;bottom=0;right=0;editable=1;overflow=hidden;whiteSpace=wrap;html=1;" vertex="1" parent="0tAN6g0XV3w3GasFkMBS-4">
                    <mxGeometry width="30" height="30" as="geometry">
                        <mxRectangle width="30" height="30" as="alternateBounds"/>
                    </mxGeometry>
                </mxCell>
                <mxCell id="0tAN6g0XV3w3GasFkMBS-6" value="적립금" style="shape=partialRectangle;connectable=0;fillColor=none;top=0;left=0;bottom=0;right=0;align=left;spacingLeft=6;overflow=hidden;whiteSpace=wrap;html=1;" vertex="1" parent="0tAN6g0XV3w3GasFkMBS-4">
                    <mxGeometry x="30" width="110" height="30" as="geometry">
                        <mxRectangle width="110" height="30" as="alternateBounds"/>
                    </mxGeometry>
                </mxCell>
                <mxCell id="0tAN6g0XV3w3GasFkMBS-7" value="" style="shape=tableRow;horizontal=0;startSize=0;swimlaneHead=0;swimlaneBody=0;fillColor=none;collapsible=0;dropTarget=0;points=[[0,0.5],[1,0.5]];portConstraint=eastwest;top=0;left=0;right=0;bottom=0;" vertex="1" parent="T8S2J-beWVn7dF4hVDKO-1">
                    <mxGeometry y="210" width="140" height="30" as="geometry"/>
                </mxCell>
                <mxCell id="0tAN6g0XV3w3GasFkMBS-8" value="" style="shape=partialRectangle;connectable=0;fillColor=none;top=0;left=0;bottom=0;right=0;editable=1;overflow=hidden;whiteSpace=wrap;html=1;" vertex="1" parent="0tAN6g0XV3w3GasFkMBS-7">
                    <mxGeometry width="30" height="30" as="geometry">
                        <mxRectangle width="30" height="30" as="alternateBounds"/>
                    </mxGeometry>
                </mxCell>
                <mxCell id="0tAN6g0XV3w3GasFkMBS-9" value="등급" style="shape=partialRectangle;connectable=0;fillColor=none;top=0;left=0;bottom=0;right=0;align=left;spacingLeft=6;overflow=hidden;whiteSpace=wrap;html=1;" vertex="1" parent="0tAN6g0XV3w3GasFkMBS-7">
                    <mxGeometry x="30" width="110" height="30" as="geometry">
                        <mxRectangle width="110" height="30" as="alternateBounds"/>
                    </mxGeometry>
                </mxCell>
                <mxCell id="DfExgKou0QU4_7HSrjMC-1" value="상품" style="shape=table;startSize=30;container=1;collapsible=1;childLayout=tableLayout;fixedRows=1;rowLines=0;fontStyle=1;align=center;resizeLast=1;html=1;" vertex="1" parent="1">
                    <mxGeometry x="380" y="330" width="140" height="180" as="geometry"/>
                </mxCell>
                <mxCell id="DfExgKou0QU4_7HSrjMC-2" value="" style="shape=tableRow;horizontal=0;startSize=0;swimlaneHead=0;swimlaneBody=0;fillColor=none;collapsible=0;dropTarget=0;points=[[0,0.5],[1,0.5]];portConstraint=eastwest;top=0;left=0;right=0;bottom=1;" vertex="1" parent="DfExgKou0QU4_7HSrjMC-1">
                    <mxGeometry y="30" width="140" height="30" as="geometry"/>
                </mxCell>
                <mxCell id="DfExgKou0QU4_7HSrjMC-3" value="PK" style="shape=partialRectangle;connectable=0;fillColor=none;top=0;left=0;bottom=0;right=0;fontStyle=1;overflow=hidden;whiteSpace=wrap;html=1;" vertex="1" parent="DfExgKou0QU4_7HSrjMC-2">
                    <mxGeometry width="30" height="30" as="geometry">
                        <mxRectangle width="30" height="30" as="alternateBounds"/>
                    </mxGeometry>
                </mxCell>
                <mxCell id="DfExgKou0QU4_7HSrjMC-4" value="상품번호" style="shape=partialRectangle;connectable=0;fillColor=none;top=0;left=0;bottom=0;right=0;align=left;spacingLeft=6;fontStyle=5;overflow=hidden;whiteSpace=wrap;html=1;" vertex="1" parent="DfExgKou0QU4_7HSrjMC-2">
                    <mxGeometry x="30" width="110" height="30" as="geometry">
                        <mxRectangle width="110" height="30" as="alternateBounds"/>
                    </mxGeometry>
                </mxCell>
                <mxCell id="jYjuUYOxTeG3g3qeHqHh-4" value="" style="shape=tableRow;horizontal=0;startSize=0;swimlaneHead=0;swimlaneBody=0;fillColor=none;collapsible=0;dropTarget=0;points=[[0,0.5],[1,0.5]];portConstraint=eastwest;top=0;left=0;right=0;bottom=1;" vertex="1" parent="DfExgKou0QU4_7HSrjMC-1">
                    <mxGeometry y="60" width="140" height="30" as="geometry"/>
                </mxCell>
                <mxCell id="jYjuUYOxTeG3g3qeHqHh-5" value="FK" style="shape=partialRectangle;connectable=0;fillColor=none;top=0;left=0;bottom=0;right=0;fontStyle=1;overflow=hidden;whiteSpace=wrap;html=1;" vertex="1" parent="jYjuUYOxTeG3g3qeHqHh-4">
                    <mxGeometry width="30" height="30" as="geometry">
                        <mxRectangle width="30" height="30" as="alternateBounds"/>
                    </mxGeometry>
                </mxCell>
                <mxCell id="jYjuUYOxTeG3g3qeHqHh-6" value="업체코드" style="shape=partialRectangle;connectable=0;fillColor=none;top=0;left=0;bottom=0;right=0;align=left;spacingLeft=6;fontStyle=5;overflow=hidden;whiteSpace=wrap;html=1;" vertex="1" parent="jYjuUYOxTeG3g3qeHqHh-4">
                    <mxGeometry x="30" width="110" height="30" as="geometry">
                        <mxRectangle width="110" height="30" as="alternateBounds"/>
                    </mxGeometry>
                </mxCell>
                <mxCell id="DfExgKou0QU4_7HSrjMC-5" value="" style="shape=tableRow;horizontal=0;startSize=0;swimlaneHead=0;swimlaneBody=0;fillColor=none;collapsible=0;dropTarget=0;points=[[0,0.5],[1,0.5]];portConstraint=eastwest;top=0;left=0;right=0;bottom=0;" vertex="1" parent="DfExgKou0QU4_7HSrjMC-1">
                    <mxGeometry y="90" width="140" height="30" as="geometry"/>
                </mxCell>
                <mxCell id="DfExgKou0QU4_7HSrjMC-6" value="" style="shape=partialRectangle;connectable=0;fillColor=none;top=0;left=0;bottom=0;right=0;editable=1;overflow=hidden;whiteSpace=wrap;html=1;" vertex="1" parent="DfExgKou0QU4_7HSrjMC-5">
                    <mxGeometry width="30" height="30" as="geometry">
                        <mxRectangle width="30" height="30" as="alternateBounds"/>
                    </mxGeometry>
                </mxCell>
                <mxCell id="DfExgKou0QU4_7HSrjMC-7" value="상품명" style="shape=partialRectangle;connectable=0;fillColor=none;top=0;left=0;bottom=0;right=0;align=left;spacingLeft=6;overflow=hidden;whiteSpace=wrap;html=1;" vertex="1" parent="DfExgKou0QU4_7HSrjMC-5">
                    <mxGeometry x="30" width="110" height="30" as="geometry">
                        <mxRectangle width="110" height="30" as="alternateBounds"/>
                    </mxGeometry>
                </mxCell>
                <mxCell id="DfExgKou0QU4_7HSrjMC-8" value="" style="shape=tableRow;horizontal=0;startSize=0;swimlaneHead=0;swimlaneBody=0;fillColor=none;collapsible=0;dropTarget=0;points=[[0,0.5],[1,0.5]];portConstraint=eastwest;top=0;left=0;right=0;bottom=0;" vertex="1" parent="DfExgKou0QU4_7HSrjMC-1">
                    <mxGeometry y="120" width="140" height="30" as="geometry"/>
                </mxCell>
                <mxCell id="DfExgKou0QU4_7HSrjMC-9" value="" style="shape=partialRectangle;connectable=0;fillColor=none;top=0;left=0;bottom=0;right=0;editable=1;overflow=hidden;whiteSpace=wrap;html=1;" vertex="1" parent="DfExgKou0QU4_7HSrjMC-8">
                    <mxGeometry width="30" height="30" as="geometry">
                        <mxRectangle width="30" height="30" as="alternateBounds"/>
                    </mxGeometry>
                </mxCell>
                <mxCell id="DfExgKou0QU4_7HSrjMC-10" value="재고량" style="shape=partialRectangle;connectable=0;fillColor=none;top=0;left=0;bottom=0;right=0;align=left;spacingLeft=6;overflow=hidden;whiteSpace=wrap;html=1;" vertex="1" parent="DfExgKou0QU4_7HSrjMC-8">
                    <mxGeometry x="30" width="110" height="30" as="geometry">
                        <mxRectangle width="110" height="30" as="alternateBounds"/>
                    </mxGeometry>
                </mxCell>
                <mxCell id="DfExgKou0QU4_7HSrjMC-11" value="" style="shape=tableRow;horizontal=0;startSize=0;swimlaneHead=0;swimlaneBody=0;fillColor=none;collapsible=0;dropTarget=0;points=[[0,0.5],[1,0.5]];portConstraint=eastwest;top=0;left=0;right=0;bottom=0;" vertex="1" parent="DfExgKou0QU4_7HSrjMC-1">
                    <mxGeometry y="150" width="140" height="30" as="geometry"/>
                </mxCell>
                <mxCell id="DfExgKou0QU4_7HSrjMC-12" value="" style="shape=partialRectangle;connectable=0;fillColor=none;top=0;left=0;bottom=0;right=0;editable=1;overflow=hidden;whiteSpace=wrap;html=1;" vertex="1" parent="DfExgKou0QU4_7HSrjMC-11">
                    <mxGeometry width="30" height="30" as="geometry">
                        <mxRectangle width="30" height="30" as="alternateBounds"/>
                    </mxGeometry>
                </mxCell>
                <mxCell id="DfExgKou0QU4_7HSrjMC-13" value="단가" style="shape=partialRectangle;connectable=0;fillColor=none;top=0;left=0;bottom=0;right=0;align=left;spacingLeft=6;overflow=hidden;whiteSpace=wrap;html=1;" vertex="1" parent="DfExgKou0QU4_7HSrjMC-11">
                    <mxGeometry x="30" width="110" height="30" as="geometry">
                        <mxRectangle width="110" height="30" as="alternateBounds"/>
                    </mxGeometry>
                </mxCell>
                <mxCell id="DfExgKou0QU4_7HSrjMC-23" value="제조업체" style="shape=table;startSize=30;container=1;collapsible=1;childLayout=tableLayout;fixedRows=1;rowLines=0;fontStyle=1;align=center;resizeLast=1;html=1;" vertex="1" parent="1">
                    <mxGeometry x="200" y="330" width="150" height="180" as="geometry"/>
                </mxCell>
                <mxCell id="DfExgKou0QU4_7HSrjMC-24" value="" style="shape=tableRow;horizontal=0;startSize=0;swimlaneHead=0;swimlaneBody=0;fillColor=none;collapsible=0;dropTarget=0;points=[[0,0.5],[1,0.5]];portConstraint=eastwest;top=0;left=0;right=0;bottom=1;" vertex="1" parent="DfExgKou0QU4_7HSrjMC-23">
                    <mxGeometry y="30" width="150" height="30" as="geometry"/>
                </mxCell>
                <mxCell id="DfExgKou0QU4_7HSrjMC-25" value="PK" style="shape=partialRectangle;connectable=0;fillColor=none;top=0;left=0;bottom=0;right=0;fontStyle=1;overflow=hidden;whiteSpace=wrap;html=1;" vertex="1" parent="DfExgKou0QU4_7HSrjMC-24">
                    <mxGeometry width="30" height="30" as="geometry">
                        <mxRectangle width="30" height="30" as="alternateBounds"/>
                    </mxGeometry>
                </mxCell>
                <mxCell id="DfExgKou0QU4_7HSrjMC-26" value="업체코드" style="shape=partialRectangle;connectable=0;fillColor=none;top=0;left=0;bottom=0;right=0;align=left;spacingLeft=6;fontStyle=5;overflow=hidden;whiteSpace=wrap;html=1;" vertex="1" parent="DfExgKou0QU4_7HSrjMC-24">
                    <mxGeometry x="30" width="120" height="30" as="geometry">
                        <mxRectangle width="120" height="30" as="alternateBounds"/>
                    </mxGeometry>
                </mxCell>
                <mxCell id="DfExgKou0QU4_7HSrjMC-27" value="" style="shape=tableRow;horizontal=0;startSize=0;swimlaneHead=0;swimlaneBody=0;fillColor=none;collapsible=0;dropTarget=0;points=[[0,0.5],[1,0.5]];portConstraint=eastwest;top=0;left=0;right=0;bottom=0;" vertex="1" parent="DfExgKou0QU4_7HSrjMC-23">
                    <mxGeometry y="60" width="150" height="30" as="geometry"/>
                </mxCell>
                <mxCell id="DfExgKou0QU4_7HSrjMC-28" value="" style="shape=partialRectangle;connectable=0;fillColor=none;top=0;left=0;bottom=0;right=0;editable=1;overflow=hidden;whiteSpace=wrap;html=1;" vertex="1" parent="DfExgKou0QU4_7HSrjMC-27">
                    <mxGeometry width="30" height="30" as="geometry">
                        <mxRectangle width="30" height="30" as="alternateBounds"/>
                    </mxGeometry>
                </mxCell>
                <mxCell id="DfExgKou0QU4_7HSrjMC-29" value="업체명" style="shape=partialRectangle;connectable=0;fillColor=none;top=0;left=0;bottom=0;right=0;align=left;spacingLeft=6;overflow=hidden;whiteSpace=wrap;html=1;" vertex="1" parent="DfExgKou0QU4_7HSrjMC-27">
                    <mxGeometry x="30" width="120" height="30" as="geometry">
                        <mxRectangle width="120" height="30" as="alternateBounds"/>
                    </mxGeometry>
                </mxCell>
                <mxCell id="DfExgKou0QU4_7HSrjMC-30" value="" style="shape=tableRow;horizontal=0;startSize=0;swimlaneHead=0;swimlaneBody=0;fillColor=none;collapsible=0;dropTarget=0;points=[[0,0.5],[1,0.5]];portConstraint=eastwest;top=0;left=0;right=0;bottom=0;" vertex="1" parent="DfExgKou0QU4_7HSrjMC-23">
                    <mxGeometry y="90" width="150" height="30" as="geometry"/>
                </mxCell>
                <mxCell id="DfExgKou0QU4_7HSrjMC-31" value="" style="shape=partialRectangle;connectable=0;fillColor=none;top=0;left=0;bottom=0;right=0;editable=1;overflow=hidden;whiteSpace=wrap;html=1;" vertex="1" parent="DfExgKou0QU4_7HSrjMC-30">
                    <mxGeometry width="30" height="30" as="geometry">
                        <mxRectangle width="30" height="30" as="alternateBounds"/>
                    </mxGeometry>
                </mxCell>
                <mxCell id="DfExgKou0QU4_7HSrjMC-32" value="전화번호" style="shape=partialRectangle;connectable=0;fillColor=none;top=0;left=0;bottom=0;right=0;align=left;spacingLeft=6;overflow=hidden;whiteSpace=wrap;html=1;" vertex="1" parent="DfExgKou0QU4_7HSrjMC-30">
                    <mxGeometry x="30" width="120" height="30" as="geometry">
                        <mxRectangle width="120" height="30" as="alternateBounds"/>
                    </mxGeometry>
                </mxCell>
                <mxCell id="DfExgKou0QU4_7HSrjMC-33" value="" style="shape=tableRow;horizontal=0;startSize=0;swimlaneHead=0;swimlaneBody=0;fillColor=none;collapsible=0;dropTarget=0;points=[[0,0.5],[1,0.5]];portConstraint=eastwest;top=0;left=0;right=0;bottom=0;" vertex="1" parent="DfExgKou0QU4_7HSrjMC-23">
                    <mxGeometry y="120" width="150" height="30" as="geometry"/>
                </mxCell>
                <mxCell id="DfExgKou0QU4_7HSrjMC-34" value="" style="shape=partialRectangle;connectable=0;fillColor=none;top=0;left=0;bottom=0;right=0;editable=1;overflow=hidden;whiteSpace=wrap;html=1;" vertex="1" parent="DfExgKou0QU4_7HSrjMC-33">
                    <mxGeometry width="30" height="30" as="geometry">
                        <mxRectangle width="30" height="30" as="alternateBounds"/>
                    </mxGeometry>
                </mxCell>
                <mxCell id="DfExgKou0QU4_7HSrjMC-35" value="단가" style="shape=partialRectangle;connectable=0;fillColor=none;top=0;left=0;bottom=0;right=0;align=left;spacingLeft=6;overflow=hidden;whiteSpace=wrap;html=1;" vertex="1" parent="DfExgKou0QU4_7HSrjMC-33">
                    <mxGeometry x="30" width="120" height="30" as="geometry">
                        <mxRectangle width="120" height="30" as="alternateBounds"/>
                    </mxGeometry>
                </mxCell>
                <mxCell id="DfExgKou0QU4_7HSrjMC-36" value="" style="shape=tableRow;horizontal=0;startSize=0;swimlaneHead=0;swimlaneBody=0;fillColor=none;collapsible=0;dropTarget=0;points=[[0,0.5],[1,0.5]];portConstraint=eastwest;top=0;left=0;right=0;bottom=0;" vertex="1" parent="DfExgKou0QU4_7HSrjMC-23">
                    <mxGeometry y="150" width="150" height="30" as="geometry"/>
                </mxCell>
                <mxCell id="DfExgKou0QU4_7HSrjMC-37" value="" style="shape=partialRectangle;connectable=0;fillColor=none;top=0;left=0;bottom=0;right=0;editable=1;overflow=hidden;whiteSpace=wrap;html=1;" vertex="1" parent="DfExgKou0QU4_7HSrjMC-36">
                    <mxGeometry width="30" height="30" as="geometry">
                        <mxRectangle width="30" height="30" as="alternateBounds"/>
                    </mxGeometry>
                </mxCell>
                <mxCell id="DfExgKou0QU4_7HSrjMC-38" value="담당자" style="shape=partialRectangle;connectable=0;fillColor=none;top=0;left=0;bottom=0;right=0;align=left;spacingLeft=6;overflow=hidden;whiteSpace=wrap;html=1;" vertex="1" parent="DfExgKou0QU4_7HSrjMC-36">
                    <mxGeometry x="30" width="120" height="30" as="geometry">
                        <mxRectangle width="120" height="30" as="alternateBounds"/>
                    </mxGeometry>
                </mxCell>
                <mxCell id="DfExgKou0QU4_7HSrjMC-42" value="게시글" style="shape=table;startSize=30;container=1;collapsible=1;childLayout=tableLayout;fixedRows=1;rowLines=0;fontStyle=1;align=center;resizeLast=1;html=1;" vertex="1" parent="1">
                    <mxGeometry x="550" y="330" width="135" height="180" as="geometry"/>
                </mxCell>
                <mxCell id="DfExgKou0QU4_7HSrjMC-43" value="" style="shape=tableRow;horizontal=0;startSize=0;swimlaneHead=0;swimlaneBody=0;fillColor=none;collapsible=0;dropTarget=0;points=[[0,0.5],[1,0.5]];portConstraint=eastwest;top=0;left=0;right=0;bottom=1;" vertex="1" parent="DfExgKou0QU4_7HSrjMC-42">
                    <mxGeometry y="30" width="135" height="30" as="geometry"/>
                </mxCell>
                <mxCell id="DfExgKou0QU4_7HSrjMC-44" value="PK" style="shape=partialRectangle;connectable=0;fillColor=none;top=0;left=0;bottom=0;right=0;fontStyle=1;overflow=hidden;whiteSpace=wrap;html=1;" vertex="1" parent="DfExgKou0QU4_7HSrjMC-43">
                    <mxGeometry width="30" height="30" as="geometry">
                        <mxRectangle width="30" height="30" as="alternateBounds"/>
                    </mxGeometry>
                </mxCell>
                <mxCell id="DfExgKou0QU4_7HSrjMC-45" value="글번호" style="shape=partialRectangle;connectable=0;fillColor=none;top=0;left=0;bottom=0;right=0;align=left;spacingLeft=6;fontStyle=5;overflow=hidden;whiteSpace=wrap;html=1;" vertex="1" parent="DfExgKou0QU4_7HSrjMC-43">
                    <mxGeometry x="30" width="105" height="30" as="geometry">
                        <mxRectangle width="105" height="30" as="alternateBounds"/>
                    </mxGeometry>
                </mxCell>
                <mxCell id="jYjuUYOxTeG3g3qeHqHh-1" value="" style="shape=tableRow;horizontal=0;startSize=0;swimlaneHead=0;swimlaneBody=0;fillColor=none;collapsible=0;dropTarget=0;points=[[0,0.5],[1,0.5]];portConstraint=eastwest;top=0;left=0;right=0;bottom=1;" vertex="1" parent="DfExgKou0QU4_7HSrjMC-42">
                    <mxGeometry y="60" width="135" height="30" as="geometry"/>
                </mxCell>
                <mxCell id="jYjuUYOxTeG3g3qeHqHh-2" value="FK" style="shape=partialRectangle;connectable=0;fillColor=none;top=0;left=0;bottom=0;right=0;fontStyle=1;overflow=hidden;whiteSpace=wrap;html=1;" vertex="1" parent="jYjuUYOxTeG3g3qeHqHh-1">
                    <mxGeometry width="30" height="30" as="geometry">
                        <mxRectangle width="30" height="30" as="alternateBounds"/>
                    </mxGeometry>
                </mxCell>
                <mxCell id="jYjuUYOxTeG3g3qeHqHh-3" value="아이디" style="shape=partialRectangle;connectable=0;fillColor=none;top=0;left=0;bottom=0;right=0;align=left;spacingLeft=6;fontStyle=5;overflow=hidden;whiteSpace=wrap;html=1;" vertex="1" parent="jYjuUYOxTeG3g3qeHqHh-1">
                    <mxGeometry x="30" width="105" height="30" as="geometry">
                        <mxRectangle width="105" height="30" as="alternateBounds"/>
                    </mxGeometry>
                </mxCell>
                <mxCell id="DfExgKou0QU4_7HSrjMC-46" value="" style="shape=tableRow;horizontal=0;startSize=0;swimlaneHead=0;swimlaneBody=0;fillColor=none;collapsible=0;dropTarget=0;points=[[0,0.5],[1,0.5]];portConstraint=eastwest;top=0;left=0;right=0;bottom=0;" vertex="1" parent="DfExgKou0QU4_7HSrjMC-42">
                    <mxGeometry y="90" width="135" height="30" as="geometry"/>
                </mxCell>
                <mxCell id="DfExgKou0QU4_7HSrjMC-47" value="" style="shape=partialRectangle;connectable=0;fillColor=none;top=0;left=0;bottom=0;right=0;editable=1;overflow=hidden;whiteSpace=wrap;html=1;" vertex="1" parent="DfExgKou0QU4_7HSrjMC-46">
                    <mxGeometry width="30" height="30" as="geometry">
                        <mxRectangle width="30" height="30" as="alternateBounds"/>
                    </mxGeometry>
                </mxCell>
                <mxCell id="DfExgKou0QU4_7HSrjMC-48" value="제목" style="shape=partialRectangle;connectable=0;fillColor=none;top=0;left=0;bottom=0;right=0;align=left;spacingLeft=6;overflow=hidden;whiteSpace=wrap;html=1;" vertex="1" parent="DfExgKou0QU4_7HSrjMC-46">
                    <mxGeometry x="30" width="105" height="30" as="geometry">
                        <mxRectangle width="105" height="30" as="alternateBounds"/>
                    </mxGeometry>
                </mxCell>
                <mxCell id="DfExgKou0QU4_7HSrjMC-49" value="" style="shape=tableRow;horizontal=0;startSize=0;swimlaneHead=0;swimlaneBody=0;fillColor=none;collapsible=0;dropTarget=0;points=[[0,0.5],[1,0.5]];portConstraint=eastwest;top=0;left=0;right=0;bottom=0;" vertex="1" parent="DfExgKou0QU4_7HSrjMC-42">
                    <mxGeometry y="120" width="135" height="30" as="geometry"/>
                </mxCell>
                <mxCell id="DfExgKou0QU4_7HSrjMC-50" value="" style="shape=partialRectangle;connectable=0;fillColor=none;top=0;left=0;bottom=0;right=0;editable=1;overflow=hidden;whiteSpace=wrap;html=1;" vertex="1" parent="DfExgKou0QU4_7HSrjMC-49">
                    <mxGeometry width="30" height="30" as="geometry">
                        <mxRectangle width="30" height="30" as="alternateBounds"/>
                    </mxGeometry>
                </mxCell>
                <mxCell id="DfExgKou0QU4_7HSrjMC-51" value="내용" style="shape=partialRectangle;connectable=0;fillColor=none;top=0;left=0;bottom=0;right=0;align=left;spacingLeft=6;overflow=hidden;whiteSpace=wrap;html=1;" vertex="1" parent="DfExgKou0QU4_7HSrjMC-49">
                    <mxGeometry x="30" width="105" height="30" as="geometry">
                        <mxRectangle width="105" height="30" as="alternateBounds"/>
                    </mxGeometry>
                </mxCell>
                <mxCell id="DfExgKou0QU4_7HSrjMC-52" value="" style="shape=tableRow;horizontal=0;startSize=0;swimlaneHead=0;swimlaneBody=0;fillColor=none;collapsible=0;dropTarget=0;points=[[0,0.5],[1,0.5]];portConstraint=eastwest;top=0;left=0;right=0;bottom=0;" vertex="1" parent="DfExgKou0QU4_7HSrjMC-42">
                    <mxGeometry y="150" width="135" height="30" as="geometry"/>
                </mxCell>
                <mxCell id="DfExgKou0QU4_7HSrjMC-53" value="" style="shape=partialRectangle;connectable=0;fillColor=none;top=0;left=0;bottom=0;right=0;editable=1;overflow=hidden;whiteSpace=wrap;html=1;" vertex="1" parent="DfExgKou0QU4_7HSrjMC-52">
                    <mxGeometry width="30" height="30" as="geometry">
                        <mxRectangle width="30" height="30" as="alternateBounds"/>
                    </mxGeometry>
                </mxCell>
                <mxCell id="DfExgKou0QU4_7HSrjMC-54" value="작성일" style="shape=partialRectangle;connectable=0;fillColor=none;top=0;left=0;bottom=0;right=0;align=left;spacingLeft=6;overflow=hidden;whiteSpace=wrap;html=1;" vertex="1" parent="DfExgKou0QU4_7HSrjMC-52">
                    <mxGeometry x="30" width="105" height="30" as="geometry">
                        <mxRectangle width="105" height="30" as="alternateBounds"/>
                    </mxGeometry>
                </mxCell>
                <mxCell id="jYjuUYOxTeG3g3qeHqHh-7" value="&lt;b&gt;&lt;font style=&quot;color: rgb(204, 0, 0); line-height: 200%;&quot;&gt;1 : 1, N : 1 관계는 외래키로 표현(외래키는 N 쪽에 표현)&amp;nbsp;&lt;br&gt;M : N 테이블로 작성(각각의 기본키를 외래키로 표현)&lt;/font&gt;&lt;/b&gt;" style="text;html=1;align=center;verticalAlign=middle;whiteSpace=wrap;rounded=0;" vertex="1" parent="1">
                    <mxGeometry x="10" y="260" width="290" height="50" as="geometry"/>
                </mxCell>
                <mxCell id="jYjuUYOxTeG3g3qeHqHh-8" value="주문" style="shape=table;startSize=30;container=1;collapsible=1;childLayout=tableLayout;fixedRows=1;rowLines=0;fontStyle=1;align=center;resizeLast=1;html=1;" vertex="1" parent="1">
                    <mxGeometry x="205" y="620" width="140" height="210" as="geometry"/>
                </mxCell>
                <mxCell id="jYjuUYOxTeG3g3qeHqHh-9" value="" style="shape=tableRow;horizontal=0;startSize=0;swimlaneHead=0;swimlaneBody=0;fillColor=none;collapsible=0;dropTarget=0;points=[[0,0.5],[1,0.5]];portConstraint=eastwest;top=0;left=0;right=0;bottom=1;" vertex="1" parent="jYjuUYOxTeG3g3qeHqHh-8">
                    <mxGeometry y="30" width="140" height="30" as="geometry"/>
                </mxCell>
                <mxCell id="jYjuUYOxTeG3g3qeHqHh-10" value="PK" style="shape=partialRectangle;connectable=0;fillColor=none;top=0;left=0;bottom=0;right=0;fontStyle=1;overflow=hidden;whiteSpace=wrap;html=1;" vertex="1" parent="jYjuUYOxTeG3g3qeHqHh-9">
                    <mxGeometry width="30" height="30" as="geometry">
                        <mxRectangle width="30" height="30" as="alternateBounds"/>
                    </mxGeometry>
                </mxCell>
                <mxCell id="jYjuUYOxTeG3g3qeHqHh-11" value="주문번호" style="shape=partialRectangle;connectable=0;fillColor=none;top=0;left=0;bottom=0;right=0;align=left;spacingLeft=6;fontStyle=5;overflow=hidden;whiteSpace=wrap;html=1;" vertex="1" parent="jYjuUYOxTeG3g3qeHqHh-9">
                    <mxGeometry x="30" width="110" height="30" as="geometry">
                        <mxRectangle width="110" height="30" as="alternateBounds"/>
                    </mxGeometry>
                </mxCell>
                <mxCell id="jYjuUYOxTeG3g3qeHqHh-12" value="" style="shape=tableRow;horizontal=0;startSize=0;swimlaneHead=0;swimlaneBody=0;fillColor=none;collapsible=0;dropTarget=0;points=[[0,0.5],[1,0.5]];portConstraint=eastwest;top=0;left=0;right=0;bottom=1;" vertex="1" parent="jYjuUYOxTeG3g3qeHqHh-8">
                    <mxGeometry y="60" width="140" height="30" as="geometry"/>
                </mxCell>
                <mxCell id="jYjuUYOxTeG3g3qeHqHh-13" value="FK" style="shape=partialRectangle;connectable=0;fillColor=none;top=0;left=0;bottom=0;right=0;fontStyle=1;overflow=hidden;whiteSpace=wrap;html=1;" vertex="1" parent="jYjuUYOxTeG3g3qeHqHh-12">
                    <mxGeometry width="30" height="30" as="geometry">
                        <mxRectangle width="30" height="30" as="alternateBounds"/>
                    </mxGeometry>
                </mxCell>
                <mxCell id="jYjuUYOxTeG3g3qeHqHh-14" value="상품코드" style="shape=partialRectangle;connectable=0;fillColor=none;top=0;left=0;bottom=0;right=0;align=left;spacingLeft=6;fontStyle=5;overflow=hidden;whiteSpace=wrap;html=1;" vertex="1" parent="jYjuUYOxTeG3g3qeHqHh-12">
                    <mxGeometry x="30" width="110" height="30" as="geometry">
                        <mxRectangle width="110" height="30" as="alternateBounds"/>
                    </mxGeometry>
                </mxCell>
                <mxCell id="rs9lhhRM3_qzG_gVhp9n-1" value="" style="shape=tableRow;horizontal=0;startSize=0;swimlaneHead=0;swimlaneBody=0;fillColor=none;collapsible=0;dropTarget=0;points=[[0,0.5],[1,0.5]];portConstraint=eastwest;top=0;left=0;right=0;bottom=1;" vertex="1" parent="jYjuUYOxTeG3g3qeHqHh-8">
                    <mxGeometry y="90" width="140" height="30" as="geometry"/>
                </mxCell>
                <mxCell id="rs9lhhRM3_qzG_gVhp9n-2" value="FK" style="shape=partialRectangle;connectable=0;fillColor=none;top=0;left=0;bottom=0;right=0;fontStyle=1;overflow=hidden;whiteSpace=wrap;html=1;" vertex="1" parent="rs9lhhRM3_qzG_gVhp9n-1">
                    <mxGeometry width="30" height="30" as="geometry">
                        <mxRectangle width="30" height="30" as="alternateBounds"/>
                    </mxGeometry>
                </mxCell>
                <mxCell id="rs9lhhRM3_qzG_gVhp9n-3" value="아이디" style="shape=partialRectangle;connectable=0;fillColor=none;top=0;left=0;bottom=0;right=0;align=left;spacingLeft=6;fontStyle=5;overflow=hidden;whiteSpace=wrap;html=1;" vertex="1" parent="rs9lhhRM3_qzG_gVhp9n-1">
                    <mxGeometry x="30" width="110" height="30" as="geometry">
                        <mxRectangle width="110" height="30" as="alternateBounds"/>
                    </mxGeometry>
                </mxCell>
                <mxCell id="jYjuUYOxTeG3g3qeHqHh-15" value="" style="shape=tableRow;horizontal=0;startSize=0;swimlaneHead=0;swimlaneBody=0;fillColor=none;collapsible=0;dropTarget=0;points=[[0,0.5],[1,0.5]];portConstraint=eastwest;top=0;left=0;right=0;bottom=0;" vertex="1" parent="jYjuUYOxTeG3g3qeHqHh-8">
                    <mxGeometry y="120" width="140" height="30" as="geometry"/>
                </mxCell>
                <mxCell id="jYjuUYOxTeG3g3qeHqHh-16" value="" style="shape=partialRectangle;connectable=0;fillColor=none;top=0;left=0;bottom=0;right=0;editable=1;overflow=hidden;whiteSpace=wrap;html=1;" vertex="1" parent="jYjuUYOxTeG3g3qeHqHh-15">
                    <mxGeometry width="30" height="30" as="geometry">
                        <mxRectangle width="30" height="30" as="alternateBounds"/>
                    </mxGeometry>
                </mxCell>
                <mxCell id="jYjuUYOxTeG3g3qeHqHh-17" value="주문수량" style="shape=partialRectangle;connectable=0;fillColor=none;top=0;left=0;bottom=0;right=0;align=left;spacingLeft=6;overflow=hidden;whiteSpace=wrap;html=1;" vertex="1" parent="jYjuUYOxTeG3g3qeHqHh-15">
                    <mxGeometry x="30" width="110" height="30" as="geometry">
                        <mxRectangle width="110" height="30" as="alternateBounds"/>
                    </mxGeometry>
                </mxCell>
                <mxCell id="jYjuUYOxTeG3g3qeHqHh-18" value="" style="shape=tableRow;horizontal=0;startSize=0;swimlaneHead=0;swimlaneBody=0;fillColor=none;collapsible=0;dropTarget=0;points=[[0,0.5],[1,0.5]];portConstraint=eastwest;top=0;left=0;right=0;bottom=0;" vertex="1" parent="jYjuUYOxTeG3g3qeHqHh-8">
                    <mxGeometry y="150" width="140" height="30" as="geometry"/>
                </mxCell>
                <mxCell id="jYjuUYOxTeG3g3qeHqHh-19" value="" style="shape=partialRectangle;connectable=0;fillColor=none;top=0;left=0;bottom=0;right=0;editable=1;overflow=hidden;whiteSpace=wrap;html=1;" vertex="1" parent="jYjuUYOxTeG3g3qeHqHh-18">
                    <mxGeometry width="30" height="30" as="geometry">
                        <mxRectangle width="30" height="30" as="alternateBounds"/>
                    </mxGeometry>
                </mxCell>
                <mxCell id="jYjuUYOxTeG3g3qeHqHh-20" value="배송지" style="shape=partialRectangle;connectable=0;fillColor=none;top=0;left=0;bottom=0;right=0;align=left;spacingLeft=6;overflow=hidden;whiteSpace=wrap;html=1;" vertex="1" parent="jYjuUYOxTeG3g3qeHqHh-18">
                    <mxGeometry x="30" width="110" height="30" as="geometry">
                        <mxRectangle width="110" height="30" as="alternateBounds"/>
                    </mxGeometry>
                </mxCell>
                <mxCell id="jYjuUYOxTeG3g3qeHqHh-21" value="" style="shape=tableRow;horizontal=0;startSize=0;swimlaneHead=0;swimlaneBody=0;fillColor=none;collapsible=0;dropTarget=0;points=[[0,0.5],[1,0.5]];portConstraint=eastwest;top=0;left=0;right=0;bottom=0;" vertex="1" parent="jYjuUYOxTeG3g3qeHqHh-8">
                    <mxGeometry y="180" width="140" height="30" as="geometry"/>
                </mxCell>
                <mxCell id="jYjuUYOxTeG3g3qeHqHh-22" value="" style="shape=partialRectangle;connectable=0;fillColor=none;top=0;left=0;bottom=0;right=0;editable=1;overflow=hidden;whiteSpace=wrap;html=1;" vertex="1" parent="jYjuUYOxTeG3g3qeHqHh-21">
                    <mxGeometry width="30" height="30" as="geometry">
                        <mxRectangle width="30" height="30" as="alternateBounds"/>
                    </mxGeometry>
                </mxCell>
                <mxCell id="jYjuUYOxTeG3g3qeHqHh-23" value="주문일자" style="shape=partialRectangle;connectable=0;fillColor=none;top=0;left=0;bottom=0;right=0;align=left;spacingLeft=6;overflow=hidden;whiteSpace=wrap;html=1;" vertex="1" parent="jYjuUYOxTeG3g3qeHqHh-21">
                    <mxGeometry x="30" width="110" height="30" as="geometry">
                        <mxRectangle width="110" height="30" as="alternateBounds"/>
                    </mxGeometry>
                </mxCell>
            </root>
        </mxGraphModel>
    </diagram>
    <diagram id="LSZik_gti4PZAie9LK7b" name="Page-3">
        <mxGraphModel dx="2216" dy="2016" grid="1" gridSize="10" guides="1" tooltips="1" connect="1" arrows="1" fold="1" page="1" pageScale="1" pageWidth="850" pageHeight="1100" math="0" shadow="0">
            <root>
                <mxCell id="0"/>
                <mxCell id="1" parent="0"/>
                <mxCell id="bO8DicTKBtpIquxOOM9H-2" value="학과" style="whiteSpace=wrap;html=1;align=center;" vertex="1" parent="1">
                    <mxGeometry x="-80" y="320" width="100" height="40" as="geometry"/>
                </mxCell>
                <mxCell id="bO8DicTKBtpIquxOOM9H-3" value="학생" style="whiteSpace=wrap;html=1;align=center;" vertex="1" parent="1">
                    <mxGeometry x="360" y="320" width="100" height="40" as="geometry"/>
                </mxCell>
                <mxCell id="bO8DicTKBtpIquxOOM9H-4" value="이름" style="ellipse;whiteSpace=wrap;html=1;align=center;" vertex="1" parent="1">
                    <mxGeometry x="520" y="300" width="100" height="40" as="geometry"/>
                </mxCell>
                <mxCell id="bO8DicTKBtpIquxOOM9H-5" value="학번" style="ellipse;whiteSpace=wrap;html=1;align=center;" vertex="1" parent="1">
                    <mxGeometry x="520" y="250" width="100" height="40" as="geometry"/>
                </mxCell>
                <mxCell id="bO8DicTKBtpIquxOOM9H-6" value="키" style="ellipse;whiteSpace=wrap;html=1;align=center;" vertex="1" parent="1">
                    <mxGeometry x="520" y="350" width="100" height="40" as="geometry"/>
                </mxCell>
                <mxCell id="bO8DicTKBtpIquxOOM9H-7" value="학과코드" style="ellipse;whiteSpace=wrap;html=1;align=center;" vertex="1" parent="1">
                    <mxGeometry x="520" y="410" width="100" height="40" as="geometry"/>
                </mxCell>
                <mxCell id="tz1iu_NHLbye-YjVRSKC-2" value="학과코드" style="ellipse;whiteSpace=wrap;html=1;align=center;container=1;" vertex="1" parent="1">
                    <mxGeometry x="-230" y="320" width="100" height="40" as="geometry"/>
                </mxCell>
                <mxCell id="tz1iu_NHLbye-YjVRSKC-3" value="학과명" style="ellipse;whiteSpace=wrap;html=1;align=center;container=1;" vertex="1" parent="1">
                    <mxGeometry x="-160" y="390" width="100" height="40" as="geometry"/>
                </mxCell>
                <mxCell id="tz1iu_NHLbye-YjVRSKC-8" value="교수코드" style="ellipse;whiteSpace=wrap;html=1;align=center;" vertex="1" parent="1">
                    <mxGeometry x="-340" y="680" width="100" height="40" as="geometry"/>
                </mxCell>
                <mxCell id="tz1iu_NHLbye-YjVRSKC-9" value="과목명" style="ellipse;whiteSpace=wrap;html=1;align=center;" vertex="1" parent="1">
                    <mxGeometry x="-400" y="620" width="100" height="40" as="geometry"/>
                </mxCell>
                <mxCell id="tz1iu_NHLbye-YjVRSKC-10" value="시작일" style="ellipse;whiteSpace=wrap;html=1;align=center;" vertex="1" parent="1">
                    <mxGeometry x="-400" y="540" width="100" height="40" as="geometry"/>
                </mxCell>
                <mxCell id="tz1iu_NHLbye-YjVRSKC-11" value="종료일" style="ellipse;whiteSpace=wrap;html=1;align=center;" vertex="1" parent="1">
                    <mxGeometry x="-290" y="510" width="100" height="40" as="geometry"/>
                </mxCell>
                <mxCell id="tz1iu_NHLbye-YjVRSKC-12" value="과목코드" style="ellipse;whiteSpace=wrap;html=1;align=center;" vertex="1" parent="1">
                    <mxGeometry x="-140" y="610" width="100" height="40" as="geometry"/>
                </mxCell>
                <mxCell id="tz1iu_NHLbye-YjVRSKC-13" value="개설과목" style="whiteSpace=wrap;html=1;align=center;" vertex="1" parent="1">
                    <mxGeometry x="-290" y="600" width="100" height="40" as="geometry"/>
                </mxCell>
                <mxCell id="tz1iu_NHLbye-YjVRSKC-16" value="수강일자" style="ellipse;whiteSpace=wrap;html=1;align=center;" vertex="1" parent="1">
                    <mxGeometry x="30" y="530" width="100" height="40" as="geometry"/>
                </mxCell>
                <mxCell id="tz1iu_NHLbye-YjVRSKC-22" value="" style="endArrow=none;html=1;rounded=0;entryX=0.028;entryY=0.713;entryDx=0;entryDy=0;entryPerimeter=0;exitX=1;exitY=0.5;exitDx=0;exitDy=0;" edge="1" parent="1" source="bO8DicTKBtpIquxOOM9H-3" target="bO8DicTKBtpIquxOOM9H-5">
                    <mxGeometry relative="1" as="geometry">
                        <mxPoint x="460" y="320" as="sourcePoint"/>
                        <mxPoint x="620" y="320" as="targetPoint"/>
                    </mxGeometry>
                </mxCell>
                <mxCell id="tz1iu_NHLbye-YjVRSKC-23" value="" style="endArrow=none;html=1;rounded=0;exitX=1;exitY=0.5;exitDx=0;exitDy=0;" edge="1" parent="1" source="bO8DicTKBtpIquxOOM9H-3" target="bO8DicTKBtpIquxOOM9H-4">
                    <mxGeometry relative="1" as="geometry">
                        <mxPoint x="470" y="330" as="sourcePoint"/>
                        <mxPoint x="533" y="289" as="targetPoint"/>
                    </mxGeometry>
                </mxCell>
                <mxCell id="tz1iu_NHLbye-YjVRSKC-24" value="" style="endArrow=none;html=1;rounded=0;" edge="1" parent="1" target="bO8DicTKBtpIquxOOM9H-6">
                    <mxGeometry relative="1" as="geometry">
                        <mxPoint x="460" y="340" as="sourcePoint"/>
                        <mxPoint x="534" y="338" as="targetPoint"/>
                    </mxGeometry>
                </mxCell>
                <mxCell id="tz1iu_NHLbye-YjVRSKC-25" value="" style="endArrow=none;html=1;rounded=0;" edge="1" parent="1" target="bO8DicTKBtpIquxOOM9H-7">
                    <mxGeometry relative="1" as="geometry">
                        <mxPoint x="460" y="340" as="sourcePoint"/>
                        <mxPoint x="520" y="429" as="targetPoint"/>
                    </mxGeometry>
                </mxCell>
                <mxCell id="tz1iu_NHLbye-YjVRSKC-30" value="" style="endArrow=none;html=1;rounded=0;" edge="1" parent="1" source="bO8DicTKBtpIquxOOM9H-2" target="tz1iu_NHLbye-YjVRSKC-2">
                    <mxGeometry relative="1" as="geometry">
                        <mxPoint x="-49" y="278" as="sourcePoint"/>
                        <mxPoint x="-130" y="340" as="targetPoint"/>
                    </mxGeometry>
                </mxCell>
                <mxCell id="tz1iu_NHLbye-YjVRSKC-31" value="" style="endArrow=none;html=1;rounded=0;" edge="1" parent="1" source="bO8DicTKBtpIquxOOM9H-2" target="tz1iu_NHLbye-YjVRSKC-3">
                    <mxGeometry relative="1" as="geometry">
                        <mxPoint x="-70" y="350" as="sourcePoint"/>
                        <mxPoint x="-120" y="350" as="targetPoint"/>
                    </mxGeometry>
                </mxCell>
                <mxCell id="tz1iu_NHLbye-YjVRSKC-32" value="" style="endArrow=none;html=1;rounded=0;" edge="1" parent="1" source="tz1iu_NHLbye-YjVRSKC-13" target="bO8DicTKBtpIquxOOM9H-3">
                    <mxGeometry relative="1" as="geometry">
                        <mxPoint x="20" y="530" as="sourcePoint"/>
                        <mxPoint x="180" y="530" as="targetPoint"/>
                    </mxGeometry>
                </mxCell>
                <mxCell id="tz1iu_NHLbye-YjVRSKC-14" value="수강" style="shape=rhombus;perimeter=rhombusPerimeter;whiteSpace=wrap;html=1;align=center;" vertex="1" parent="1">
                    <mxGeometry x="20" y="440" width="120" height="60" as="geometry"/>
                </mxCell>
                <mxCell id="tz1iu_NHLbye-YjVRSKC-33" value="" style="endArrow=none;html=1;rounded=0;" edge="1" parent="1" source="tz1iu_NHLbye-YjVRSKC-14" target="tz1iu_NHLbye-YjVRSKC-16">
                    <mxGeometry relative="1" as="geometry">
                        <mxPoint x="91" y="499" as="sourcePoint"/>
                        <mxPoint x="10" y="561" as="targetPoint"/>
                    </mxGeometry>
                </mxCell>
                <mxCell id="tz1iu_NHLbye-YjVRSKC-34" value="" style="endArrow=none;html=1;rounded=0;exitX=1;exitY=0.25;exitDx=0;exitDy=0;" edge="1" parent="1" source="tz1iu_NHLbye-YjVRSKC-13" target="tz1iu_NHLbye-YjVRSKC-12">
                    <mxGeometry relative="1" as="geometry">
                        <mxPoint x="-140" y="600" as="sourcePoint"/>
                        <mxPoint x="90" y="540" as="targetPoint"/>
                    </mxGeometry>
                </mxCell>
                <mxCell id="tz1iu_NHLbye-YjVRSKC-35" value="" style="endArrow=none;html=1;rounded=0;" edge="1" parent="1" source="tz1iu_NHLbye-YjVRSKC-13" target="tz1iu_NHLbye-YjVRSKC-8">
                    <mxGeometry relative="1" as="geometry">
                        <mxPoint x="-180" y="620" as="sourcePoint"/>
                        <mxPoint x="-125" y="631" as="targetPoint"/>
                    </mxGeometry>
                </mxCell>
                <mxCell id="tz1iu_NHLbye-YjVRSKC-36" value="" style="endArrow=none;html=1;rounded=0;" edge="1" parent="1" source="tz1iu_NHLbye-YjVRSKC-13" target="tz1iu_NHLbye-YjVRSKC-9">
                    <mxGeometry relative="1" as="geometry">
                        <mxPoint x="-284" y="590" as="sourcePoint"/>
                        <mxPoint x="-310" y="631" as="targetPoint"/>
                    </mxGeometry>
                </mxCell>
                <mxCell id="tz1iu_NHLbye-YjVRSKC-38" value="" style="endArrow=none;html=1;rounded=0;" edge="1" parent="1" source="tz1iu_NHLbye-YjVRSKC-13" target="tz1iu_NHLbye-YjVRSKC-10">
                    <mxGeometry relative="1" as="geometry">
                        <mxPoint x="-242" y="650" as="sourcePoint"/>
                        <mxPoint x="-268" y="691" as="targetPoint"/>
                    </mxGeometry>
                </mxCell>
                <mxCell id="tz1iu_NHLbye-YjVRSKC-39" value="" style="endArrow=none;html=1;rounded=0;" edge="1" parent="1" source="tz1iu_NHLbye-YjVRSKC-13" target="tz1iu_NHLbye-YjVRSKC-11">
                    <mxGeometry relative="1" as="geometry">
                        <mxPoint x="-267" y="610" as="sourcePoint"/>
                        <mxPoint x="-310" y="586" as="targetPoint"/>
                    </mxGeometry>
                </mxCell>
                <mxCell id="EykfVlKSbCGucHfKiRE6-2" value="" style="group" vertex="1" connectable="0" parent="1">
                    <mxGeometry x="130" y="310" width="120" height="60" as="geometry"/>
                </mxCell>
                <mxCell id="EykfVlKSbCGucHfKiRE6-3" value="" style="group" vertex="1" connectable="0" parent="EykfVlKSbCGucHfKiRE6-2">
                    <mxGeometry width="120" height="60" as="geometry"/>
                </mxCell>
                <mxCell id="oX-x6TKzSxTSu-pzXPAl-1" value="" style="endArrow=none;html=1;rounded=0;entryX=1;entryY=0.5;entryDx=0;entryDy=0;exitX=0;exitY=0.5;exitDx=0;exitDy=0;" edge="1" parent="EykfVlKSbCGucHfKiRE6-3" source="bO8DicTKBtpIquxOOM9H-3" target="bO8DicTKBtpIquxOOM9H-2">
                    <mxGeometry relative="1" as="geometry">
                        <mxPoint x="20" y="130" as="sourcePoint"/>
                        <mxPoint x="180" y="130" as="targetPoint"/>
                    </mxGeometry>
                </mxCell>
                <mxCell id="oX-x6TKzSxTSu-pzXPAl-2" value="N" style="resizable=0;html=1;whiteSpace=wrap;align=right;verticalAlign=bottom;" connectable="0" vertex="1" parent="oX-x6TKzSxTSu-pzXPAl-1">
                    <mxGeometry x="1" relative="1" as="geometry">
                        <mxPoint x="340" as="offset"/>
                    </mxGeometry>
                </mxCell>
                <mxCell id="oX-x6TKzSxTSu-pzXPAl-3" value="1" style="resizable=0;html=1;whiteSpace=wrap;align=right;verticalAlign=bottom;" connectable="0" vertex="1" parent="oX-x6TKzSxTSu-pzXPAl-1">
                    <mxGeometry x="1" relative="1" as="geometry">
                        <mxPoint x="10" as="offset"/>
                    </mxGeometry>
                </mxCell>
                <mxCell id="EykfVlKSbCGucHfKiRE6-10" value="1" style="resizable=0;html=1;whiteSpace=wrap;align=right;verticalAlign=bottom;" connectable="0" vertex="1" parent="oX-x6TKzSxTSu-pzXPAl-1">
                    <mxGeometry x="1" relative="1" as="geometry">
                        <mxPoint x="-40" y="-20" as="offset"/>
                    </mxGeometry>
                </mxCell>
                <mxCell id="EykfVlKSbCGucHfKiRE6-14" value="1" style="resizable=0;html=1;whiteSpace=wrap;align=right;verticalAlign=bottom;" connectable="0" vertex="1" parent="oX-x6TKzSxTSu-pzXPAl-1">
                    <mxGeometry x="1" relative="1" as="geometry">
                        <mxPoint x="-110" y="-340" as="offset"/>
                    </mxGeometry>
                </mxCell>
                <mxCell id="EfNG2JU5BPmGLiAYqe4c-1" value="소속" style="shape=rhombus;perimeter=rhombusPerimeter;whiteSpace=wrap;html=1;align=center;" vertex="1" parent="EykfVlKSbCGucHfKiRE6-3">
                    <mxGeometry width="120" height="60" as="geometry"/>
                </mxCell>
                <mxCell id="EykfVlKSbCGucHfKiRE6-6" value="" style="endArrow=none;html=1;rounded=0;" edge="1" parent="1" source="bO8DicTKBtpIquxOOM9H-2" target="tz1iu_NHLbye-YjVRSKC-4">
                    <mxGeometry relative="1" as="geometry">
                        <mxPoint x="-50" y="310" as="sourcePoint"/>
                        <mxPoint x="100" y="250" as="targetPoint"/>
                    </mxGeometry>
                </mxCell>
                <mxCell id="EykfVlKSbCGucHfKiRE6-7" value="N" style="resizable=0;html=1;whiteSpace=wrap;align=right;verticalAlign=bottom;" connectable="0" vertex="1" parent="EykfVlKSbCGucHfKiRE6-6">
                    <mxGeometry x="1" relative="1" as="geometry">
                        <mxPoint x="23" y="20" as="offset"/>
                    </mxGeometry>
                </mxCell>
                <mxCell id="EykfVlKSbCGucHfKiRE6-8" value="1" style="resizable=0;html=1;whiteSpace=wrap;align=right;verticalAlign=bottom;" connectable="0" vertex="1" parent="EykfVlKSbCGucHfKiRE6-6">
                    <mxGeometry x="1" relative="1" as="geometry">
                        <mxPoint x="10" as="offset"/>
                    </mxGeometry>
                </mxCell>
                <mxCell id="EykfVlKSbCGucHfKiRE6-13" value="N" style="resizable=0;html=1;whiteSpace=wrap;align=right;verticalAlign=bottom;" connectable="0" vertex="1" parent="EykfVlKSbCGucHfKiRE6-6">
                    <mxGeometry x="1" relative="1" as="geometry">
                        <mxPoint x="-240" y="570" as="offset"/>
                    </mxGeometry>
                </mxCell>
                <mxCell id="EykfVlKSbCGucHfKiRE6-9" value="소속" style="shape=rhombus;perimeter=rhombusPerimeter;whiteSpace=wrap;html=1;align=center;" vertex="1" parent="1">
                    <mxGeometry x="-90" y="110" width="120" height="60" as="geometry"/>
                </mxCell>
                <mxCell id="tz1iu_NHLbye-YjVRSKC-1" value="교수코드" style="ellipse;whiteSpace=wrap;html=1;align=center;" vertex="1" parent="1">
                    <mxGeometry x="-190" y="80" width="100" height="40" as="geometry"/>
                </mxCell>
                <mxCell id="tz1iu_NHLbye-YjVRSKC-4" value="교수" style="whiteSpace=wrap;html=1;align=center;" vertex="1" parent="1">
                    <mxGeometry x="-80" y="-20" width="100" height="40" as="geometry"/>
                </mxCell>
                <mxCell id="tz1iu_NHLbye-YjVRSKC-5" value="교수명" style="ellipse;whiteSpace=wrap;html=1;align=center;" vertex="1" parent="1">
                    <mxGeometry x="160" y="-20" width="100" height="40" as="geometry"/>
                </mxCell>
                <mxCell id="tz1iu_NHLbye-YjVRSKC-6" value="학과코드" style="ellipse;whiteSpace=wrap;html=1;align=center;" vertex="1" parent="1">
                    <mxGeometry x="40" y="-160" width="100" height="40" as="geometry"/>
                </mxCell>
                <mxCell id="tz1iu_NHLbye-YjVRSKC-26" value="" style="endArrow=none;html=1;rounded=0;" edge="1" parent="1" source="tz1iu_NHLbye-YjVRSKC-4" target="tz1iu_NHLbye-YjVRSKC-5">
                    <mxGeometry relative="1" as="geometry">
                        <mxPoint y="30" as="sourcePoint"/>
                        <mxPoint x="78" y="86" as="targetPoint"/>
                    </mxGeometry>
                </mxCell>
                <mxCell id="tz1iu_NHLbye-YjVRSKC-27" value="" style="endArrow=none;html=1;rounded=0;" edge="1" parent="1" source="tz1iu_NHLbye-YjVRSKC-4" target="tz1iu_NHLbye-YjVRSKC-1">
                    <mxGeometry relative="1" as="geometry">
                        <mxPoint x="-100" y="15" as="sourcePoint"/>
                        <mxPoint x="-100" y="85" as="targetPoint"/>
                    </mxGeometry>
                </mxCell>
                <mxCell id="tz1iu_NHLbye-YjVRSKC-28" value="" style="endArrow=none;html=1;rounded=0;exitX=0.616;exitY=0.1;exitDx=0;exitDy=0;exitPerimeter=0;" edge="1" parent="1" source="tz1iu_NHLbye-YjVRSKC-4" target="tz1iu_NHLbye-YjVRSKC-6">
                    <mxGeometry relative="1" as="geometry">
                        <mxPoint x="-26" y="30" as="sourcePoint"/>
                        <mxPoint x="-107" y="92" as="targetPoint"/>
                    </mxGeometry>
                </mxCell>
                <mxCell id="EykfVlKSbCGucHfKiRE6-12" value="" style="endArrow=none;html=1;rounded=0;exitX=0;exitY=0.5;exitDx=0;exitDy=0;entryX=0.093;entryY=-0.076;entryDx=0;entryDy=0;entryPerimeter=0;" edge="1" parent="1" source="tz1iu_NHLbye-YjVRSKC-4" target="tz1iu_NHLbye-YjVRSKC-13">
                    <mxGeometry relative="1" as="geometry">
                        <mxPoint x="-42" y="30" as="sourcePoint"/>
                        <mxPoint x="-430" y="360" as="targetPoint"/>
                        <Array as="points">
                            <mxPoint x="-420" y="210"/>
                        </Array>
                    </mxGeometry>
                </mxCell>
                <mxCell id="EykfVlKSbCGucHfKiRE6-11" value="강의" style="shape=rhombus;perimeter=rhombusPerimeter;whiteSpace=wrap;html=1;align=center;" vertex="1" parent="1">
                    <mxGeometry x="-480" y="180" width="120" height="60" as="geometry"/>
                </mxCell>
            </root>
        </mxGraphModel>
    </diagram>
</mxfile>